<svg xmlns="http://www.w3.org/2000/svg" viewBox="0 0 24 24" fill="#111827">
  <path d="M12 .5C5.65.5.5 5.65.5 12c0 5.09 3.29 9.41 7.86 10.94.57.1.78-.25.78-.55 0-.27-.01-.99-.02-1.95-3.2.69-3.88-1.54-3.88-1.54-.52-1.33-1.28-1.68-1.28-1.68-1.04-.71.08-.7.08-.7 1.15.08 1.75 1.18 1.75 1.18 1.02 1.75 2.67 1.24 3.32.95.1-.74.4-1.24.72-1.53-2.55-.29-5.23-1.28-5.23-5.7 0-1.26.45-2.28 1.18-3.09-.12-.29-.51-1.46.11-3.04 0 0 .97-.31 3.17 1.18a10.93 10.93 0 0 1 5.78 0c2.2-1.49 3.17-1.18 3.17-1.18.62 1.58.23 2.75.11 3.04.73.81 1.18 1.83 1.18 3.09 0 4.43-2.68 5.4-5.24 5.69.41.35.77 1.03.77 2.08 0 1.5-.01 2.72-.01 3.09 0 .3.2.66.79.55A11.51 11.51 0 0 0 23.5 12C23.5 5.65 18.35.5 12 .5Z"/>
</svg>
